<?xml version="1.0" encoding="UTF-8" standalone="no"?>
<svg width="100px" height="100px" viewBox="0 0 100 100" version="1.1" xmlns="http://www.w3.org/2000/svg" xmlns:xlink="http://www.w3.org/1999/xlink">
    <!-- Generator: Sketch 39.1 (31720) - http://www.bohemiancoding.com/sketch -->
    <title>Artboard 2</title>
    <desc>Created with Sketch.</desc>
    <defs></defs>
    <g id="Page-1" stroke="none" stroke-width="1" fill="none" fill-rule="evenodd">
        <g id="Artboard-2" fill="#111B28">
            <path d="M69.0174292,19.2447387 C65.7227035,16.9049799 60.5800514,16.6134611 60.5800514,16.6134611 L59.6198596,9 C70.8439572,9.09552493 72.6282312,15.6259566 73.0984282,17.3801417 C73.228351,17.8639693 73.2778454,18.5214785 73.2939311,19.2037995 C73.2704213,19.2447387 73.2493862,19.2881592 73.228351,19.3290984 C73.2023665,19.360113 73.1776192,19.3936088 73.1516347,19.4258639 C73.1432719,19.431541 73.1349236,19.4372378 73.1265899,19.4429542 C69.5612295,25.5783318 59.8001438,31.051257 49.5279469,31.963201 C40.0658508,32.7968731 29.6695474,33.247205 26.9461168,23.6426073 C26.9461168,23.6426073 26.1319336,29.6830085 26.9461168,34.2830922 C27.7590627,38.8844165 39.4991396,42.9944697 51.3592406,41.5417464 C61.9832183,40.2403743 72.5911103,31.8813225 73.3434256,28.3965234 C74.0214991,25.2516441 73.4745858,20.1937851 73.3632233,19.2447387 L82,19.2447387 L82,92 L66.1914815,92 C71.3723102,89.0585765 75.1128511,85.4608843 75.1759565,83.4164026 C75.30093,79.3001465 75.1759565,74.0921769 75.1759565,74.0921769 C71.7930128,80.3794541 61.8384471,86.0563643 51.3604779,86.9805991 C41.8996191,87.8179929 31.5033157,88.2670842 28.7786478,78.6624865 C28.7786478,78.6624865 27.9644646,84.7016471 28.7786478,89.3029714 C28.9444541,90.2371308 29.5779827,91.1502003 30.5554976,92 L18,92 L18,19.2447387 L69.0174292,19.2447387 Z M27.4175512,41.9536201 C30.1422191,51.5557366 40.5372852,51.1066453 49.9993813,50.2692515 C60.4761131,49.3437762 70.4319162,43.6681065 73.8136226,37.384551 C73.8136226,37.384551 73.9398333,42.5900395 73.8136226,46.7062956 C73.7047348,50.2692515 62.4546527,58.5501465 51.8306749,59.8515186 C39.9693367,61.3054825 28.2304971,57.1929481 27.4175512,52.594105 C26.6033679,47.9915401 27.4175512,41.9536201 27.4175512,41.9536201 Z M74.4954082,65.0371577 C74.3852831,68.5963918 63.1376757,76.879768 52.5124606,78.1798996 C40.6523597,79.635104 28.9122827,75.5225697 28.0980995,70.9200048 C27.2839162,66.3199211 28.0980995,60.2807605 28.0980995,60.2807605 C30.8227674,69.8853581 41.2178335,69.4362669 50.6786923,68.598873 C61.1566614,67.6709165 71.1112271,61.9977281 74.4954082,55.7154131 C74.4954082,55.7154131 74.6203816,60.9184204 74.4954082,65.0371577 Z" id="Logo"></path>
        </g>
    </g>
</svg>